<svg version="1.2" xmlns="http://www.w3.org/2000/svg" viewBox="0 0 98 98" width="98" height="98">
	<title>google-plus-social-logotype-svg</title>
	<style>
		.si { fill: #ffffff } 
	</style>
	<g >
		<g >
			<path  class="si" d="m50.7 33.7c0-6.8-4-17.3-11.8-17.3-2.4 0-5.1 1.2-6.6 3.1-1.6 2-2.1 4.5-2.1 7 0 6.3 3.7 16.7 11.7 16.7 2.3 0 4.9-1.1 6.4-2.6 2.2-2.2 2.4-5.2 2.4-6.9z"/>
			<path  class="si" d="m45.7 58.4c-0.7-0.1-1.2-0.1-2.2-0.1-0.8 0-5.9 0.2-9.9 1.5-2.1 0.7-8.1 3-8.1 9.7 0.1 6.7 6.5 11.5 16.6 11.5 9 0 13.8-4.3 13.8-10.2 0-4.8-3.1-7.3-10.2-12.4z"/>
			<path  fill-rule="evenodd" class="si" d="m97.8 48.9c0 27-21.9 48.9-48.9 48.9-27 0-48.9-21.9-48.9-48.9 0-27 21.9-48.9 48.9-48.9 27 0 48.9 21.9 48.9 48.9zm-35.6 18.2c0-6.5-3.8-9.7-7.9-13.2l-3.4-2.6c-1-0.8-2.4-1.9-2.4-4 0-2.1 1.4-3.4 2.6-4.6 4-3.1 7.9-6.4 7.9-13.4 0-7.2-4.5-10.9-6.7-12.7h5.8l6.1-3.8h-18.5c-5 0-12.3 1.2-17.7 5.6-4 3.5-6 8.3-6 12.6 0 7.4 5.6 14.8 15.5 14.7 0.9 0 2-0.1 3-0.2-0.4 1.2-0.9 2.1-0.9 3.7 0 2.9 1.5 4.7 2.8 6.4-4.2 0.3-12.1 0.7-17.9 4.3-5.5 3.3-7.2 8.1-7.2 11.5 0 7 6.6 13.5 20.2 13.5 16.1 0 24.7-8.9 24.7-17.8zm25.2-19.4v-4.7h-9.4v-9.4h-4.6v9.4h-9.4v4.7h9.4v9.5h4.6v-9.5z"/>
		</g>
	</g>
</svg>