<svg version="1.2" xmlns="http://www.w3.org/2000/svg" viewBox="0 0 98 98" width="98" height="98">
	<title>tripadvisor-svg</title>
	<style>
		.s0 { fill: #ffffff } 
	</style>
	<g id="Layer">
		<g id="Layer">
			<path id="Layer" fill-rule="evenodd" class="s0" d="m73 52.1c0 3.2-2.6 5.9-5.9 5.9-3.2 0-5.9-2.7-5.9-6 0-3.3 2.7-5.9 6-5.9 3.3 0 5.9 2.6 5.8 6zm-2.8-0.1c0-1.6-1.3-3-3-3-1.7 0-3 1.3-3 3 0 1.7 1.3 3 3 3 1.6 0 3-1.3 3-3z"/>
			<path id="Layer" fill-rule="evenodd" class="s0" d="m45.2 52.2c0 8-6.5 14.5-14.5 14.6-8.2 0.1-14.7-6.6-14.8-14.4-0.2-8.4 6.7-15 14.6-14.9 8.2 0 14.7 6.6 14.7 14.7zm-5.9-0.2c0-5.1-4.1-9.1-9.1-9.1-4.8-0.1-9.1 3.9-9.1 9.1 0 5.1 4.3 9.3 9.6 9.1 4.7-0.2 8.7-4 8.6-9.1z"/>
			<path id="Layer" fill-rule="evenodd" class="s0" d="m97.8 48.9c0 27-21.9 48.9-48.9 48.9-27 0-48.9-21.9-48.9-48.9 0-27 21.9-48.9 48.9-48.9 27 0 48.9 21.9 48.9 48.9zm-12.5 7.9c1.3-5.5 0.3-10.6-2.9-15.2-0.2-0.3-0.2-0.5-0.1-0.7 0.6-2.2 1.7-4.1 2.9-6 0.2-0.3 0.3-0.5 0.5-0.8 0 0 0 0 0-0.1q-0.4 0-0.9 0-5.4 0-10.8 0c-0.3 0-0.6-0.1-0.8-0.2-3.1-1.9-6.3-3.4-9.8-4.5-2-0.6-4-1.1-6.1-1.4-2.8-0.4-7-0.9-12.2-0.5-2.2 0.1-4.3 0.4-6.4 0.8-2.2 0.4-4.3 1-6.4 1.7-2.9 1-5.7 2.3-8.3 4-0.2 0.1-0.3 0.2-0.5 0.2q-5.5 0-11.1 0c-0.1 0-0.1 0-0.2 0v0.1c0.3 0.5 0.6 0.9 0.9 1.3 1.1 1.8 2.1 3.6 2.6 5.6 0 0.1 0 0.4-0.1 0.5-1.4 1.9-2.3 3.9-2.9 6.2-0.2 0.8-0.9 4-0.3 7.3 0.6 3.6 2 6.7 4.4 9.4 2.5 2.8 5.5 4.6 9 5.6 2.5 0.7 5 0.8 7.6 0.4 4.6-0.8 8.4-2.9 11.4-6.5l0.1-0.1c0 0 0-0.1 0.1-0.1 1.3 1.9 2.6 3.8 3.9 5.8 1.3-2 2.6-3.9 3.9-5.9 0.4 0.4 0.7 0.8 1 1.1 2.5 2.6 5.5 4.4 9 5.3 1.4 0.4 2.9 0.6 4.4 0.6 3.5 0 6.8-0.9 9.8-2.8 4.2-2.7 6.9-6.4 8.3-11.1z"/>
			<path id="Layer" fill-rule="evenodd" class="s0" d="m36.2 51.9c0 3.3-2.7 6-5.9 6-3.3 0-6-2.6-6-5.9 0-3.2 2.7-5.9 5.9-5.9 3.4 0 6 2.6 6 5.8zm-2.9 0.1c-0.1-1.7-1.4-3-3.1-3-1.7 0-3 1.3-3 3 0 1.8 1.4 3.1 3.1 3.1 1.7-0.1 3.1-1.4 3-3.1z"/>
			<path id="Layer" fill-rule="evenodd" class="s0" d="m81.9 52.2c0 8.2-6.6 14.7-14.7 14.7-8.1 0.1-14.7-6.6-14.7-14.7 0.1-8 6.4-14.4 14.4-14.6 8.1-0.2 15 6.2 15 14.6zm-5.6-0.2c0-5.1-4.1-9.1-9.1-9.1-4.8-0.1-9.1 3.9-9.1 9.1 0 5.1 4.2 9.3 9.5 9.1 4.7-0.2 8.7-4.1 8.7-9.1z"/>
			<path id="Layer" class="s0" d="m54.7 38.6c3.2-3 7.1-4.5 11.5-4.9-5.2-2.3-10.7-3.3-16.4-3.4-6.4-0.1-12.7 0.8-18.6 3.3 4.5 0.3 8.4 1.8 11.7 4.8 3.3 3 5.2 6.8 5.9 11.2 0.8-4.3 2.7-8 5.9-11z"/>
		</g>
	</g>
</svg>