<svg version="1.2" xmlns="http://www.w3.org/2000/svg" viewBox="0 0 98 98" width="98" height="98">
	<title>twitter-svg</title>
	<style>
		.s0 { fill: #ffffff } 
	</style>
	<g id="Layer">
		<path id="Layer" fill-rule="evenodd" class="s0" d="m97.8 48.9c0 27-21.9 48.9-48.9 48.9-27 0-48.9-21.9-48.9-48.9 0-27 21.9-48.9 48.9-48.9 27 0 48.9 21.9 48.9 48.9zm-12.1-21c0.1-0.1 0.1-0.3 0-0.4-0.1-0.1-0.3-0.2-0.4-0.1-2.1 1-4.4 1.7-6.8 2.1 2.5-1.9 4.3-4.5 5.3-7.5 0.1-0.1 0-0.3-0.1-0.4-0.1-0.1-0.3-0.1-0.4 0-2.8 1.7-5.9 2.8-9.1 3.5-2.8-2.9-6.8-4.6-10.9-4.6-8.4 0-15.2 6.8-15.2 15.2q0 1.5 0.3 3c-11.6-0.7-22.4-6.3-29.8-15.3-0.1-0.1-0.2-0.1-0.3-0.1-0.1 0-0.2 0.1-0.3 0.2-1.4 2.3-2.1 4.9-2.1 7.6 0 4.7 2.1 9 5.7 11.9-1.9-0.2-3.7-0.8-5.3-1.7-0.2-0.1-0.3-0.1-0.4 0-0.1 0.1-0.2 0.2-0.2 0.3v0.2c0 6.7 4.4 12.6 10.7 14.5-1.6 0.2-3.3 0.2-5-0.1-0.1 0-0.2 0-0.3 0.1-0.1 0.1-0.1 0.3-0.1 0.4 1.9 5.9 7.1 10 13.2 10.5-5.1 3.7-11.1 5.7-17.4 5.7-1.2 0-2.4-0.1-3.5-0.2-0.2-0.1-0.3 0-0.4 0.2-0.1 0.1 0 0.3 0.1 0.4 6.9 4.4 14.8 6.7 22.9 6.7 26.6 0 42.5-21.6 42.5-42.5 0-0.5 0-1.1 0-1.7 2.9-2.1 5.4-4.6 7.3-7.9z"/>
	</g>
</svg>